<?xml version="1.0" encoding="utf-8"?>
<svg viewBox="379.18 226.11 371.12 396.31" xmlns="http://www.w3.org/2000/svg">
  <path d="M541.66,622.42H591V477.3c0-2.15,1.14-4.13,3.01-5.2c1.85-1.08,4.14-1.08,5.99,0l125.68,72.56l24.62-42.65l-125.67-72.55 c-1.87-1.08-3.01-3.05-3.01-5.2c0-2.14,1.14-4.12,3.01-5.2l125.67-72.55l-24.63-42.65l-125.67,72.55c-1.86,1.07-4.14,1.07-5.99,0 c-1.87-1.08-3.01-3.05-3.01-5.2V226.11h-49.35h-0.01L541.66,622.42L541.66,622.42z"/>
  <path d="M413.41,399.13c-14.54,0-30.9-8.3-33.21-31.59l18.4-1.82c0.99,10.04,5.83,14.93,14.81,14.93 c12.07,0,15.25-8.09,15.25-12.38c0-3.85,0-9.69-16.07-13.18c-18.88-4.11-28.46-13.92-28.46-29.17c0-15.72,13.41-28.03,30.53-28.03 c16.76,0,28.58,9.97,30.13,25.41l-18.39,1.84c-0.59-5.81-4.53-8.76-11.74-8.76c-6.76,0-12.05,4.19-12.05,9.55 c0,3.41,0,8.09,13.91,11.11c20.32,4.42,30.62,14.94,30.62,31.24C447.14,383.23,435.32,399.13,413.41,399.13"/>
  <path d="M431.84,509.8c-0.46,0.14-1.02-0.06-1.29-0.51l-31.93-51.93h-19.44v89.2h18.91v-51.37c0-0.51,0.33-0.98,0.83-1.11 c0.48-0.11,1.03,0.06,1.3,0.51l31.96,51.98h19.41v-89.2h-18.9v51.33C432.68,509.2,432.33,509.66,431.84,509.8"/>
</svg>